<svg width="256" height="256" viewBox="0 0 256 256" fill="none" xmlns="http://www.w3.org/2000/svg">
<rect width="256" height="256" rx="128" fill="#282828"/>
<g clip-path="url(#clip0_932_5872)">
<path d="M99.2001 120.149C74.8374 122.496 49.8347 128.256 28.4587 136.363C24.4054 137.899 20.7787 139.264 20.3947 139.392C19.3707 139.691 19.4134 140.885 20.6934 147.755C26.1547 177.28 43.0934 202.709 68.48 219.435C74.4107 223.317 84.3521 228.309 91.0934 230.741C104.789 235.691 120.661 237.909 135.083 236.885C161.792 234.923 185.003 224.64 203.904 206.293C213.163 197.291 220.331 187.435 225.92 176C230.827 165.931 233.899 156.544 235.733 145.749C236.672 140.203 236.629 139.819 235.008 139.179C218.624 132.693 202.581 127.829 187.52 124.843C184.491 124.203 181.547 123.605 181.035 123.52C180.267 123.349 179.883 123.819 178.389 126.549C172.971 136.576 164.267 143.147 153.6 145.323C148.651 146.304 140.117 145.963 135.893 144.64C124.544 141.013 115.285 132.139 111.915 121.685L111.189 119.467L108.203 119.509C106.539 119.552 102.485 119.808 99.2001 120.149Z" fill="white"/>
<path d="M118.613 19.2426C85.2907 22.1013 55.0827 40.2346 36.608 68.48C29.056 79.9573 23.9787 92.2453 21.1627 105.728C20.608 108.459 19.968 111.829 19.84 113.195L19.5414 115.669L22.016 114.517C32.256 109.909 46.8481 104.704 58.1974 101.589C75.3067 96.896 88.0214 94.72 112.427 92.3306C114.347 92.16 114.645 91.9893 115.499 90.496C119.637 83.328 128.256 76.9706 137.173 74.624C142.464 73.216 150.827 73.3013 155.861 74.8373C162.56 76.8426 167.979 80.128 172.459 84.8213C174.891 87.3386 179.2 93.6106 179.2 94.592C179.2 95.36 179.456 95.4453 186.709 96.8533C201.003 99.6693 215.125 103.595 228.48 108.587C232.448 110.08 235.776 111.232 235.819 111.189C236.075 110.976 233.728 100.48 232.533 96.512C225.323 72.2773 209.28 50.9013 187.52 36.5653C181.803 32.8106 171.819 27.776 165.333 25.3866C151.083 20.1386 134.101 17.92 118.613 19.2426Z" fill="#FF4A4A"/>
<path d="M142.848 87.4666C137.472 88.4053 133.077 90.8373 129.408 94.848C121.259 103.808 121.941 118.101 130.944 126.379C138.24 133.077 149.376 134.187 157.867 129.067C170.283 121.515 172.373 104.32 162.133 93.9093C157.312 89.0026 149.248 86.3146 142.848 87.4666Z" fill="white"/>
</g>
<defs>
<clipPath id="clip0_932_5872">
<rect width="218.453" height="218.453" fill="white" transform="translate(18.7733 18.7733)"/>
</clipPath>
</defs>
</svg>
