<svg width="1520" height="559" viewBox="0 0 1520 559" fill="none" xmlns="http://www.w3.org/2000/svg">
<path d="M19.2847 109L129.285 67.9999L210.785 72L269.285 102.5L301.785 206.5L269.285 262.5L214.785 315L182.785 329.5L191.285 439.5L166.285 445L75.7852 168L161.285 142.5L185.285 233L218.285 217L200.785 164.5L161.285 159.5L75.7852 187L42.2852 187L19.2847 109Z" fill="#FFCB05"/>
<path d="M211.871 431.915L140 460" stroke="#1F4886" stroke-width="29"/>
<path d="M82.7852 181L27.2609 196.168" stroke="#214C8D" stroke-width="29"/>
<path d="M64.7849 184L159.304 468.027" stroke="url(#paint0_linear_952_9710)" stroke-width="35"/>
<path d="M184.598 313.174L203.475 446.745" stroke="url(#paint1_linear_952_9710)" stroke-width="29"/>
<g clip-path="url(#clip0_952_9710)">
<path d="M198.782 326.125C126.489 347.288 55.2675 305.212 39.514 232.466C23.7606 159.719 69.3539 83.4485 141.647 62.2861C213.94 41.1237 285.161 83.1991 300.915 155.946C316.668 228.692 271.075 304.963 198.782 326.125Z" stroke="url(#paint2_linear_952_9710)" stroke-width="30"/>
<g clip-path="url(#clip1_952_9710)">
<path d="M181.263 243.406C156.669 250.79 133.501 237.451 128.59 215.142C123.678 192.833 138.463 168.099 163.057 160.715C187.651 153.33 210.819 166.669 215.731 188.979C220.642 211.288 205.857 236.022 181.263 243.406Z" stroke="#305D9F" stroke-width="20"/>
<path d="M171.785 172L183.508 228.415" stroke="#305D9F" stroke-width="20" stroke-linecap="round"/>
</g>
</g>
<path d="M69.3956 164.979L122.396 158.479L173.5 280L201.5 436.342L158.893 452.5L69.3956 164.979Z" fill="#FFCB05"/>
<path d="M1.09947e-07 98.5C1.09947e-07 98.5 141.319 47.0572 142.487 47.5045C143.656 47.9518 144.877 76.8519 144.877 76.8519L36.0026 117L54.5002 177L24.0004 184L7.92881 125.667L1.09947e-07 98.5Z" fill="#214C8D"/>
<path d="M449.577 126.304L528.169 128.595L519.185 436.698L459.8 426.434L449.577 126.304Z" fill="#FFCB05"/>
<path d="M459.668 263.369L502.719 205.571L740.092 406.733L697.042 464.532L459.668 263.369Z" fill="#FFCB05"/>
<path d="M537.018 267.994L498.825 198.165L619.007 101.356L669.938 186.421L537.018 267.994Z" fill="#FFCB05"/>
<path d="M423.313 116.457L525.434 101.475L528.316 128.105L420.912 141.786L423.313 116.457Z" fill="#FFCB05"/>
<path d="M508.852 75.7813L536.739 70.5529L530.431 160.062L505.595 171.648L508.852 75.7813Z" fill="#355794"/>
<path d="M585.943 95.1498L605.675 115.575L505.15 195.193L505.685 168.533L585.943 95.1498Z" fill="url(#paint3_linear_952_9710)"/>
<path d="M585.468 95.5813L603.749 79.2533L690.478 172.602L669.843 190.398L585.468 95.5813Z" fill="url(#paint4_linear_952_9710)"/>
<path d="M652.168 170.131L670.195 190.105L570.877 263.082L542.248 254.808L652.168 170.131Z" fill="url(#paint5_linear_952_9710)"/>
<path d="M542.197 254.886L560.162 241.156L752.768 391.96L734.03 411.609L542.197 254.886Z" fill="#345694"/>
<path d="M733.943 382L755.746 397.843L694.523 474L675 459L733.943 382Z" fill="#345694"/>
<path d="M524.653 72.8729L522.886 101.774L402.278 121.742L397.804 95.4545L524.653 72.8729Z" fill="#345694"/>
<path d="M397.804 95.4546L425.266 98.1731L425.708 168.873L390.081 170.062L397.804 95.4546Z" fill="#345694"/>
<path d="M449.166 138.377L451.468 165.144L406.886 168.777L404.403 142.164L449.166 138.377Z" fill="#345694"/>
<path d="M424.254 141.323L450.184 137.961L463.631 453.02L436.235 457.818L424.254 141.323Z" fill="#345694"/>
<rect width="26.7505" height="81.7319" transform="matrix(0.165756 0.986167 -0.988338 0.152275 525.706 416.774)" fill="#345694"/>
<path d="M506.515 298.622L531.384 317.61L529.89 442.256L502.169 442.005L506.515 298.622Z" fill="#345694"/>
<path d="M508.761 332.54L522.496 311.03L696.887 441.798L675.285 459.5L508.761 332.54Z" fill="#345694"/>
<path d="M415.765 415.694C363.328 461.81 293.905 461.03 259.783 422.231C225.661 383.432 233.755 314.478 286.192 268.362C338.628 222.246 408.052 223.026 442.174 261.825C476.296 300.624 468.201 369.578 415.765 415.694Z" fill="#FFCB05" stroke="url(#paint6_linear_952_9710)" stroke-width="30"/>
<ellipse cx="371.31" cy="316.336" rx="44.5" ry="43.5" transform="rotate(1.67017 371.31 316.336)" fill="#32528D"/>
<ellipse cx="386.328" cy="298.766" rx="20" ry="25.5" transform="rotate(1.67017 386.328 298.766)" fill="#FFCB05"/>
<path d="M842.378 382.938L886.45 32.919L985.583 31.0458L917.246 402.04L842.378 382.938Z" fill="#FFCB05" stroke="url(#paint7_linear_952_9710)" stroke-width="27"/>
<path d="M626.285 257.5L649.285 184.5L745.285 161.5L813.785 209.5L741.285 300L680.785 282.5L737.785 214L715.285 209.5L685.285 225L680.785 257.5L698.285 282.5L766.785 286L813.785 320L813.785 373L737.785 391L666.285 373L621.785 317.5L626.285 257.5Z" fill="#FFCB05"/>
<path d="M823.115 324.737C824.652 325.847 826.009 326.841 827.172 327.71L826.881 337.708C825.571 340.307 824.529 342.536 823.645 344.432C822.37 347.167 821.602 348.807 820.75 350.317C819.409 352.692 817.57 355.29 811.836 360.333C761.086 404.966 685.821 400.944 643.61 352.948C601.399 304.951 607.025 229.789 657.775 185.156C681.733 164.085 715.638 158.328 747.421 163.525C779.919 168.838 805.177 184.664 813.802 200.63L814.262 201.48C814.144 201.763 813.991 202.104 813.795 202.509C811.857 206.517 807.723 211.936 801.479 219.014C798.782 222.071 795.915 225.194 792.908 228.471C792.568 228.842 792.226 229.214 791.883 229.589C788.549 233.222 785.072 237.029 781.771 240.844C775.375 248.234 768.669 256.727 764.668 265.385C762.283 270.547 763.468 275.167 764.125 277.068C764.847 279.159 765.862 280.708 766.44 281.525C767.646 283.232 769.068 284.675 770.091 285.658C772.289 287.767 775.2 290.148 778.236 292.507C784.425 297.316 792.713 303.247 800.796 308.955C803.413 310.804 806.007 312.628 808.523 314.397C813.919 318.191 818.959 321.735 823.115 324.737ZM814.649 200.329C814.653 200.326 814.648 200.373 814.621 200.477C814.631 200.384 814.645 200.332 814.649 200.329Z" stroke="url(#paint8_linear_952_9710)" stroke-width="30"/>
<path d="M757.563 296.143L779.694 269.185L852.164 328.355L833.798 357.832L757.563 296.143Z" fill="url(#paint9_linear_952_9710)"/>
<path d="M710.258 111.768L786.938 27.5975L821.622 93.1932L728.664 139.233L710.258 111.768Z" fill="#FFCB05" stroke="#4067AF" stroke-width="24"/>
<g clip-path="url(#clip2_952_9710)">
<path d="M747.483 221.73C766.929 237.01 770.612 262.85 757.724 279.252C744.836 295.654 718.859 298.188 699.412 282.908C679.966 267.628 676.283 241.789 689.171 225.386C702.059 208.984 728.036 206.45 747.483 221.73Z" stroke="#4168B0" stroke-width="14"/>
<path d="M733.942 207.385L748.004 213.666L695.339 281.264L686.847 268.007L733.942 207.385Z" fill="#4168B0"/>
</g>
<path d="M815 178.5C817.999 181.001 836.586 199.683 836.586 199.683L757.02 297.052C743.306 313.834 720.743 320.924 699.82 315.274V315.274L815 178.5Z" fill="url(#paint10_linear_952_9710)"/>
<path d="M1125.71 128.81L1177.57 108.681L1234.46 389.528L1148.01 404.592L1125.71 128.81Z" fill="#FFCB05"/>
<path d="M1135.03 220.005L1318.69 212.842L1319.84 251.674L1147.53 281.699L1135.03 220.005Z" fill="#FFCB05"/>
<path d="M1122.53 118.128L1326.44 70.348L1338.19 128.359L1129.64 153.24L1122.53 118.128Z" fill="#FFCB05"/>
<path d="M1105.43 113.561L1135.35 111.622L1158.81 409.781L1130.11 416.439L1105.43 113.561Z" fill="url(#paint11_linear_952_9710)"/>
<rect width="28.1729" height="115.712" transform="matrix(0.182139 0.983273 -0.98759 0.157056 1320.35 246.215)" fill="url(#paint12_linear_952_9710)"/>
<path d="M1293.59 213.434L1323.58 212.677L1325.35 273.699L1295.66 276.372L1293.59 213.434Z" fill="url(#paint13_linear_952_9710)"/>
<path d="M1349.23 38.2197L1355.41 65.556L1106.33 124.552L1103.55 92.2671L1349.23 38.2197Z" fill="url(#paint14_linear_952_9710)"/>
<path d="M1325.88 70.2339L1355.41 65.4354L1371 149.298L1339.35 153.819L1325.88 70.2339Z" fill="url(#paint15_linear_952_9710)"/>
<path d="M1336.2 125.872L1339.63 153.798L1188 169.582L1183.52 145.82L1336.2 125.872Z" fill="#446CB6"/>
<path d="M1184.1 148.202L1213.51 142.777L1228.65 213.478L1197.8 222.127L1184.1 148.202Z" fill="url(#paint16_linear_952_9710)"/>
<path d="M1197.93 222.221L1194.95 194.252L1322.48 183.601L1323.64 212.678L1197.93 222.221Z" fill="#4269B0"/>
<path d="M1206.02 266.082L1236.02 265.627L1238.17 392.415L1208.79 395.592L1206.02 266.082Z" fill="url(#paint17_linear_952_9710)"/>
<path d="M1229.83 365.018L1238.34 391.99L1140.69 413.937L1133.68 391.339L1229.83 365.018Z" fill="#385B99"/>
<path d="M1404.34 442.335C1355.65 492.395 1286.38 497.025 1249.34 461.001C1212.3 424.978 1215 355.603 1263.68 305.543C1312.37 255.483 1381.64 250.853 1418.68 286.877C1455.72 322.9 1453.03 392.275 1404.34 442.335Z" fill="#FFCB05" stroke="url(#paint18_linear_952_9710)" stroke-width="30"/>
<ellipse cx="1352.28" cy="346.741" rx="44.5" ry="43.5" transform="rotate(-2.79697 1352.28 346.741)" fill="#4269B0"/>
<ellipse cx="1365.89" cy="328.055" rx="20" ry="25.5" transform="rotate(-2.79697 1365.89 328.055)" fill="#FFCB05"/>
<path d="M941.982 195.956L944.765 163.805L1028.14 167.959L1049.43 196.371L1058.42 169.468L1138.9 173.477L1115.26 446.569L1052.62 443.449L1037.57 410.409L1007.29 408.901L952.945 406.193L971.019 197.403L941.982 195.956Z" fill="#FFCB05"/>
<rect width="24.9196" height="296.134" transform="matrix(0.998761 0.0497584 -0.0862421 0.996274 1140.6 153.808)" fill="url(#paint19_linear_952_9710)"/>
<rect width="22.7932" height="105.578" transform="matrix(-0.101998 0.994785 -0.998015 -0.0629762 1165.69 155.104)" fill="#2F6DB4"/>
<rect width="22.5522" height="103.978" transform="matrix(-0.089277 0.996007 -0.998631 -0.0523014 1034.96 148.47)" fill="#2F6DB4"/>
<path d="M1064.4 237L1054.52 291.009L1010.25 157.641L1035.08 148.69L1064.4 237Z" fill="url(#paint20_linear_952_9710)"/>
<path d="M1054.33 291.388L1044.78 216.332L1060.35 148.356L1080.48 154.398L1054.33 291.388Z" fill="url(#paint21_linear_952_9710)"/>
<rect width="24.8963" height="211.807" transform="matrix(0.999349 -0.036064 0.0169904 0.999856 948.49 198.092)" fill="url(#paint22_linear_952_9710)"/>
<path d="M929.256 164.615L954.505 166.098L951.474 197.254L926.225 195.771L929.256 164.615Z" fill="url(#paint23_linear_952_9710)"/>
<path d="M973.384 196.986L971.846 220.26L923.894 217.173L926.253 194.501L973.384 196.986Z" fill="url(#paint24_linear_952_9710)"/>
<path d="M1032.82 292.12L1073.45 453.415L1033.26 451.65L1032.82 292.12Z" fill="url(#paint25_linear_952_9710)"/>
<path d="M959.509 409.498L961.492 388.663L1041.83 396.201L1038.65 417.992L959.509 409.498Z" fill="#3C60A0"/>
<path d="M1046.05 452.139L1047.68 431.279L1140.73 439.439L1139.22 461.4L1046.05 452.139Z" fill="#385B99"/>
<path d="M137.658 458.299L215.171 428.834L218.469 446.226L143.54 475.911L137.658 458.299Z" fill="#1F4887"/>
<defs>
<linearGradient id="paint0_linear_952_9710" x1="150.036" y1="469.556" x2="70.4214" y2="213.929" gradientUnits="userSpaceOnUse">
<stop stop-color="#1F4886"/>
<stop offset="1" stop-color="#214C8E"/>
</linearGradient>
<linearGradient id="paint1_linear_952_9710" x1="181.386" y1="429.258" x2="161.725" y2="347.741" gradientUnits="userSpaceOnUse">
<stop stop-color="#1F4886"/>
<stop offset="1" stop-color="#214B8C"/>
</linearGradient>
<linearGradient id="paint2_linear_952_9710" x1="315.311" y1="151.732" x2="20.5454" y2="215.564" gradientUnits="userSpaceOnUse">
<stop stop-color="#3E6DB0"/>
<stop offset="0.536458" stop-color="#1E4889"/>
</linearGradient>
<linearGradient id="paint3_linear_952_9710" x1="591.532" y1="109.567" x2="535.574" y2="158.494" gradientUnits="userSpaceOnUse">
<stop stop-color="#3F64AB"/>
<stop offset="1" stop-color="#345694"/>
</linearGradient>
<linearGradient id="paint4_linear_952_9710" x1="605.285" y1="83" x2="587.878" y2="99.1395" gradientUnits="userSpaceOnUse">
<stop stop-color="#2F6DB4"/>
<stop offset="1" stop-color="#4064AB"/>
</linearGradient>
<linearGradient id="paint5_linear_952_9710" x1="658.335" y1="180.556" x2="572.047" y2="251.491" gradientUnits="userSpaceOnUse">
<stop stop-color="#4167AF"/>
<stop offset="1" stop-color="#345694"/>
</linearGradient>
<linearGradient id="paint6_linear_952_9710" x1="453.438" y1="251.919" x2="248.519" y2="432.137" gradientUnits="userSpaceOnUse">
<stop stop-color="#4872BF"/>
<stop offset="1" stop-color="#2A4880"/>
</linearGradient>
<linearGradient id="paint7_linear_952_9710" x1="935.96" y1="14.1237" x2="916.319" y2="418.251" gradientUnits="userSpaceOnUse">
<stop stop-color="#2F6DB4"/>
<stop offset="1" stop-color="#335695"/>
</linearGradient>
<linearGradient id="paint8_linear_952_9710" x1="848.271" y1="148.499" x2="643.353" y2="328.717" gradientUnits="userSpaceOnUse">
<stop stop-color="#4872BF"/>
<stop offset="1" stop-color="#345694"/>
</linearGradient>
<linearGradient id="paint9_linear_952_9710" x1="768.629" y1="282.664" x2="842.204" y2="343.067" gradientUnits="userSpaceOnUse">
<stop stop-color="#456DB8"/>
<stop offset="0.685461" stop-color="#3D63A7"/>
</linearGradient>
<linearGradient id="paint10_linear_952_9710" x1="805.5" y1="191.5" x2="820.5" y2="218" gradientUnits="userSpaceOnUse">
<stop stop-color="#436BB4"/>
<stop offset="1" stop-color="#456DB8"/>
</linearGradient>
<linearGradient id="paint11_linear_952_9710" x1="1120.64" y1="112.563" x2="1137.2" y2="388.288" gradientUnits="userSpaceOnUse">
<stop stop-color="#4270BB"/>
<stop offset="1" stop-color="#385B99"/>
</linearGradient>
<linearGradient id="paint12_linear_952_9710" x1="19.468" y1="32.3632" x2="18.4465" y2="85.1944" gradientUnits="userSpaceOnUse">
<stop stop-color="#3E63A9"/>
<stop offset="1" stop-color="#3F64AA"/>
</linearGradient>
<linearGradient id="paint13_linear_952_9710" x1="1308.59" y1="213.056" x2="1310.17" y2="276.006" gradientUnits="userSpaceOnUse">
<stop stop-color="#4269B0"/>
<stop offset="1" stop-color="#3E63A8"/>
</linearGradient>
<linearGradient id="paint14_linear_952_9710" x1="1197.92" y1="33.7497" x2="1207.22" y2="126.96" gradientUnits="userSpaceOnUse">
<stop stop-color="#2F6DB4"/>
<stop offset="1" stop-color="#4670BC"/>
</linearGradient>
<linearGradient id="paint15_linear_952_9710" x1="1339.51" y1="68.0184" x2="1353.19" y2="152.192" gradientUnits="userSpaceOnUse">
<stop stop-color="#3B6FB8"/>
<stop offset="1" stop-color="#436BB4"/>
</linearGradient>
<linearGradient id="paint16_linear_952_9710" x1="1197.78" y1="145.678" x2="1211.42" y2="219.616" gradientUnits="userSpaceOnUse">
<stop stop-color="#446CB6"/>
<stop offset="1" stop-color="#4167AE"/>
</linearGradient>
<linearGradient id="paint17_linear_952_9710" x1="1221.59" y1="291.915" x2="1223.32" y2="364.239" gradientUnits="userSpaceOnUse">
<stop stop-color="#4064AA"/>
<stop offset="1" stop-color="#385B99"/>
</linearGradient>
<linearGradient id="paint18_linear_952_9710" x1="1429.14" y1="276.123" x2="1238.88" y2="471.755" gradientUnits="userSpaceOnUse">
<stop stop-color="#2F6DB4"/>
<stop offset="1" stop-color="#385B99"/>
</linearGradient>
<linearGradient id="paint19_linear_952_9710" x1="11.6772" y1="22.5777" x2="12.2895" y2="296.134" gradientUnits="userSpaceOnUse">
<stop stop-color="#2F6DB4"/>
<stop offset="1" stop-color="#375997"/>
</linearGradient>
<linearGradient id="paint20_linear_952_9710" x1="1063.89" y1="287.776" x2="1017.95" y2="154.603" gradientUnits="userSpaceOnUse">
<stop stop-color="#4168B0"/>
<stop offset="1" stop-color="#2F6DB4"/>
</linearGradient>
<linearGradient id="paint21_linear_952_9710" x1="1042.9" y1="288.714" x2="1074.95" y2="151.773" gradientUnits="userSpaceOnUse">
<stop stop-color="#4067AE"/>
<stop offset="1" stop-color="#2F6DB4"/>
</linearGradient>
<linearGradient id="paint22_linear_952_9710" x1="11.9571" y1="20.3426" x2="12.4482" y2="211.807" gradientUnits="userSpaceOnUse">
<stop stop-color="#4670B8"/>
<stop offset="1" stop-color="#3C60A0"/>
</linearGradient>
<linearGradient id="paint23_linear_952_9710" x1="943.285" y1="165" x2="940.062" y2="196.636" gradientUnits="userSpaceOnUse">
<stop stop-color="#2F6DB4"/>
<stop offset="1" stop-color="#4A70B7"/>
</linearGradient>
<linearGradient id="paint24_linear_952_9710" x1="927.072" y1="215.934" x2="925.552" y2="196.041" gradientUnits="userSpaceOnUse">
<stop stop-color="#4670B7"/>
<stop offset="1" stop-color="#4770BB"/>
</linearGradient>
<linearGradient id="paint25_linear_952_9710" x1="1052.95" y1="291.64" x2="1056.82" y2="453.811" gradientUnits="userSpaceOnUse">
<stop stop-color="#446BB2"/>
<stop offset="1" stop-color="#385B99"/>
</linearGradient>
<clipPath id="clip0_952_9710">
<rect width="299.955" height="151.185" fill="white" transform="matrix(0.211647 0.977346 -0.959725 0.280941 283.623 6.14178)"/>
</clipPath>
<clipPath id="clip1_952_9710">
<rect width="104.693" height="55.4695" fill="white" transform="matrix(0.214968 0.976368 -0.958236 0.287704 213.938 135)"/>
</clipPath>
<clipPath id="clip2_952_9710">
<rect width="94.1183" height="42.137" fill="white" transform="translate(655.307 257.155) rotate(-51.8417)"/>
</clipPath>
</defs>
</svg>
